<?xml version="1.0" encoding="UTF-8"?><svg id="advanced_analysis" xmlns="http://www.w3.org/2000/svg" viewBox="0 0 81.51 63.08"><defs><style>.cls-1{fill:none;stroke:#00529b;stroke-linecap:round;stroke-linejoin:round;stroke-width:4px;}</style></defs><path d="M80.45,0H1.05C.42,0,0,.42,0,1.06V50.3c0,.64,.42,1.06,1.05,1.06H80.45c.53,0,1.05-.42,1.05-1.06V1.06c0-.64-.42-1.06-1.05-1.06Zm-1.1,48.88c0,.6-.5,1-1,1H3.05c-.6,0-1-.4-1-1V2.48c0-.6,.4-1,1-1H78.35c.6,0,1,.4,1,1V48.88Z"/><path d="M31,36.88h-3.5V19.88h3.5v17Zm-5.8-8.2h-3.5v8.2h3.5v-8.2Zm-5.8-3.4h-3.5v11.6h3.5v-11.6Zm-5.8,2.3h-3.5v9.3h3.5v-9.3Z"/><path d="M59.8,23.28h14.2c0,7.8-6.4,14.2-14.2,14.2,0,0,0-14.2,0-14.2Z"/><path d="M56.79,5.01c-8.23,0-14.98,6.64-14.98,14.98s6.64,14.98,14.98,14.98v-14.98h14.98c0-8.23-6.75-14.98-14.98-14.98Zm-1.46,13.44v14.64c-6.19,0-11.29-6.69-11.29-13.98,0-6.29,6.77-12.23,12.88-12.23s12.88,5.35,12.88,11.57h-14.46Z"/><rect x="32.3" y="49.88" width="16.8" height="10.8"/><line class="cls-1" x1="59.2" y1="60.68" x2="22.2" y2="60.68"/><rect x="19.7" y="58.08" width="42" height="5"/><rect x=".28" y="40.18" width="79.98" height="3.4"/><path d="M8.09,16.69H30.41v-3.81H8.09v3.81Zm1.08-3H29.25v2.21H9.17v-2.21Z"/><path d="M30.41,6.68H8.09v3.81H30.41v-3.81Zm-1.15,3.03H9.17v-2.21H29.25v2.21Z"/></svg>