<?xml version="1.0" encoding="UTF-8"?><svg id="Layer_2" xmlns="http://www.w3.org/2000/svg" viewBox="0 0 88 57"><defs><style>.cls-1{fill:#fff;}.cls-2{fill:none;stroke:#f6bb4e;stroke-miterlimit:10;}.cls-3{fill:#211d21;}.cls-4{fill:#721c24;}.cls-5{fill:#191719;}</style></defs><g id="Layer_1-2"><rect class="cls-3" width="88" height="57" rx="3" ry="3"/><rect class="cls-1" x="5" y="5" width="78" height="47" rx="3" ry="3"/><path class="cls-2" d="m63.76,10.85c0-.5-.07-.98-.25-1.41-.17-.44-.44-.84-.79-1.2-.36-.36-.75-.63-1.19-.82-.44-.18-.91-.27-1.41-.27H27.89c-.5,0-.98.09-1.41.27-.43.18-.83.46-1.19.82-.35.36-.62.76-.79,1.2-.17.44-.26.91-.25,1.41h0c.04,2.32.03,4.54.02,6.68-.06,16.39-.11,27.55,19.54,32.3.06.02.13.03.2.03s.13-.01.2-.03c19.65-4.75,19.61-15.91,19.54-32.3,0-2.14-.02-4.36.02-6.68Z"/><path class="cls-5" d="m32.69,20.2h-15.96v16.09h15.96v-5.5l5.89,1.18v2.88c.13,1.7-.26,3.4-1.31,4.84-1.44,1.05-3.27,1.44-5.1,1.31h-15.05c-1.83.26-3.53-.26-5.1-1.31-1.05-1.31-1.44-3.14-1.31-4.84v-13.22c-.13-1.7.26-3.4,1.31-4.71,1.44-1.05,3.27-1.44,5.1-1.31h15.18c1.83-.26,3.53.26,5.1,1.31,1.05,1.31,1.57,3.01,1.31,4.71v2.49l-5.89.92v-4.84h-.13Z"/><polyline class="cls-4" points="57.16 38.58 47.61 27.07 47.61 41.07 43.55 41.07 43.55 20.13 47.61 20.13 57.95 32.7 57.95 38.58"/><polygon class="cls-4" points="66.06 24.98 70.77 19.87 70.77 41.07 66.06 41.07 66.06 24.98"/><polygon class="cls-4" points="59.65 31.39 64.36 26.41 64.36 41.07 59.65 41.07 59.65 31.39"/><polygon class="cls-4" points="72.47 13.98 77.31 13.98 77.31 41.07 72.47 41.07 72.47 13.98"/></g></svg>