<?xml version="1.0" encoding="utf-8"?>
<!-- Generator: Adobe Illustrator 26.2.1, SVG Export Plug-In . SVG Version: 6.00 Build 0)  -->
<svg version="1.1" id="Layer_1" xmlns="http://www.w3.org/2000/svg" xmlns:xlink="http://www.w3.org/1999/xlink" x="0px" y="0px"
	 viewBox="0 0 309.5 70.9" style="enable-background:new 0 0 309.5 70.9;" xml:space="preserve">
<style type="text/css">
	.st0{fill:#FFFFFF;}
</style>
<g id="Layer_1_00000085245973525606714160000010487342975883057331_">
	<path class="st0" d="M16.7,23H4.5v12.3h12.2v-4.2l4.5,0.9v2.2c0.1,1.3-0.2,2.6-1,3.7c-1.1,0.8-2.5,1.1-3.9,1H4.8
		c-1.4,0.2-2.7-0.2-3.9-1c-0.8-1-1.1-2.4-1-3.7V24.1c-0.1-1.3,0.2-2.6,1-3.6c1.1-0.8,2.5-1.1,3.9-1h11.6c1.4-0.2,2.7,0.2,3.9,1
		c0.8,1,1.2,2.3,1,3.6V26l-4.5,0.7V23z"/>
	<path class="st0" d="M29.6,36.4h10.9V28H29.6V36.4z M26.4,28.7c-0.1-0.9,0.1-1.8,0.7-2.5c0.8-0.5,1.8-0.8,2.8-0.7h10.5
		c1-0.1,2,0.1,2.8,0.7c0.6,0.7,0.8,1.6,0.7,2.5v7.1c0.1,0.9-0.1,1.8-0.7,2.6c-0.8,0.5-1.8,0.8-2.8,0.7H29.8c-1,0.1-2-0.1-2.8-0.7
		c-0.6-0.7-0.8-1.7-0.7-2.6L26.4,28.7z"/>
	<path class="st0" d="M51.2,25.5v10.9h9.4V25.5h3.3v10.3c0.1,0.9-0.1,1.9-0.7,2.6c-0.8,0.5-1.8,0.8-2.8,0.7h-9c-1,0.1-2-0.1-2.8-0.7
		c-0.6-0.7-0.8-1.7-0.7-2.6V25.5L51.2,25.5z"/>
	<polygon class="st0" points="68.3,39 68.3,25.5 70.5,25.5 82,34.5 82,25.5 85,25.5 85,39 82.7,39 71.3,29.9 71.3,39 	"/>
	<polygon class="st0" points="97.4,27.9 97.4,39 94.1,39 94.1,27.9 87.6,27.9 87.6,25.5 103.9,25.5 103.9,27.9 	"/>
	<polygon class="st0" points="106.6,39 106.6,25.5 121,25.5 121,27.9 109.9,27.9 109.9,30.9 116.4,30.9 116.4,33.2 109.9,33.2 
		109.9,36.4 121.2,36.4 121.2,39 	"/>
	<path class="st0" d="M135.1,27.9h-7.4v3.8h7.5c0.4,0,0.8,0,1.2-0.2c0.2-0.2,0.4-0.5,0.3-0.9V29c0-0.3-0.1-0.6-0.3-0.8
		C136,27.9,135.6,27.8,135.1,27.9 M124.4,39V25.5h12.1c0.9-0.1,1.7,0.1,2.4,0.6c0.5,0.5,0.8,1.2,0.7,2v3.2c0.1,0.7-0.2,1.5-0.7,2
		c-0.7,0.5-1.6,0.7-2.4,0.6h-1.8l6.4,5.1h-4.7l-5.6-5.1h-3.1V39L124.4,39z"/>
	<polyline class="st0" points="154.4,37.1 147.1,28.3 147.1,39 144,39 144,23 147.1,23 155,32.6 155,37.1 	"/>
	<polygon class="st0" points="172.5,39 172.5,25.5 186.9,25.5 186.9,27.9 175.8,27.9 175.8,30.9 182.3,30.9 182.3,33.2 175.8,33.2 
		175.8,36.4 187.1,36.4 187.1,39 	"/>
	<path class="st0" d="M194.6,33.6h6.2l-3.1-5.6L194.6,33.6z M188.1,39l8-13.5h3.2l8.2,13.5h-3.7l-1.7-3h-8.9l-1.7,3H188.1z"/>
	<path class="st0" d="M221.7,27.9h-9.2v2.8h8.7c1-0.1,2,0.1,2.8,0.7c0.6,0.7,0.8,1.6,0.7,2.5v1.9c0.1,0.9-0.1,1.9-0.7,2.6
		c-0.8,0.5-1.8,0.8-2.8,0.7h-8.7c-1,0.1-2-0.1-2.8-0.7c-0.6-0.7-0.9-1.6-0.7-2.6v-0.4l2.9-0.5v1.6h10v-3.1H213c-1,0.1-2-0.1-2.8-0.7
		c-0.6-0.7-0.8-1.6-0.7-2.5v-1.5c-0.1-0.9,0.2-1.8,0.7-2.5c0.8-0.5,1.8-0.8,2.8-0.7h8c1-0.1,2,0.1,2.8,0.6c0.6,0.6,0.8,1.4,0.7,2.3
		v0.3l-2.8,0.6V27.9z"/>
	<path class="st0" d="M232,25.5v10.9h9.4V25.5h3.3v10.3c0.1,0.9-0.1,1.9-0.7,2.6c-0.8,0.5-1.8,0.8-2.8,0.7h-9c-1,0.1-2-0.1-2.8-0.7
		c-0.6-0.7-0.8-1.7-0.7-2.6V25.5L232,25.5z"/>
	<path class="st0" d="M259.8,27.9h-7.4v3.8h7.4c0.4,0,0.8,0,1.2-0.2c0.2-0.2,0.4-0.5,0.3-0.9V29c0-0.3-0.1-0.6-0.3-0.8
		C260.7,27.9,260.3,27.8,259.8,27.9 M249.2,39V25.5h12.1c0.9-0.1,1.7,0.1,2.4,0.6c0.5,0.5,0.8,1.2,0.7,2v3.2c0.1,0.7-0.2,1.5-0.7,2
		c-0.7,0.5-1.6,0.7-2.4,0.6h-1.8l6.4,5.1h-4.7l-5.6-5.1h-3.1V39L249.2,39z"/>
	<polygon class="st0" points="268.3,39 268.3,25.5 282.7,25.5 282.7,27.9 271.6,27.9 271.6,30.9 278.1,30.9 278.1,33.2 271.6,33.2 
		271.6,36.4 282.9,36.4 282.9,39 	"/>
	<path class="st0" d="M298.5,27.9h-9.2v2.8h8.7c1-0.1,2,0.1,2.8,0.7c0.6,0.7,0.8,1.6,0.7,2.5v1.9c0.1,0.9-0.1,1.9-0.7,2.6
		c-0.8,0.5-1.8,0.8-2.8,0.7h-8.7c-1,0.1-2-0.1-2.9-0.7c-0.6-0.7-0.9-1.6-0.7-2.6v-0.4l2.9-0.5v1.6h10v-3.1h-8.8
		c-1,0.1-2-0.1-2.8-0.7c-0.6-0.7-0.8-1.6-0.7-2.5v-1.5c-0.1-0.9,0.2-1.8,0.7-2.5c0.8-0.5,1.8-0.8,2.8-0.7h8c1-0.1,2,0.1,2.8,0.6
		c0.6,0.6,0.8,1.4,0.7,2.3v0.3l-2.8,0.6L298.5,27.9z"/>
	<path class="st0" d="M8.9,44.7H2.7v2.6h6.2c0.3,0,0.7,0,1-0.2c0.2-0.1,0.3-0.4,0.3-0.6v-1.1c0-0.2-0.1-0.4-0.3-0.6
		C9.6,44.7,9.3,44.6,8.9,44.7 M0,52.5V43h10.1c0.7-0.1,1.4,0.1,2,0.4c0.4,0.3,0.7,0.9,0.6,1.4v2.3c0,0.5-0.2,1.1-0.6,1.4
		c-0.6,0.3-1.3,0.5-2,0.4H8.6l5.5,3.6h-4L5.4,49H2.8v3.6L0,52.5z"/>
	<rect x="17.6" y="44.7" class="st0" width="2.4" height="7.8"/>
	<path class="st0" d="M33.2,46.1h-6.7v1.7h6.3c0.7-0.1,1.4,0.1,2,0.4c0.4,0.4,0.6,0.9,0.5,1.5v1.1c0.1,0.5-0.1,1.1-0.5,1.5
		c-0.6,0.3-1.3,0.5-2,0.4h-6.3c-0.7,0.1-1.4-0.1-2-0.4c-0.4-0.4-0.6-0.9-0.5-1.5v-0.2l2.1-0.3v0.9h7.2v-1.8H27
		c-0.7,0.1-1.4-0.1-2-0.4c-0.4-0.4-0.6-0.9-0.5-1.5v-0.9c-0.1-0.5,0.1-1.1,0.5-1.5c0.6-0.3,1.3-0.5,2-0.4h5.8c0.7-0.1,1.4,0.1,2,0.4
		c0.4,0.3,0.6,0.8,0.5,1.3v0.2l-2,0.4L33.2,46.1z"/>
	<polygon class="st0" points="39.5,52.6 39.5,44.7 41.9,44.7 41.9,47.9 47.6,44.7 51,44.7 44.3,48.4 51.7,52.6 48,52.6 41.9,49 
		41.9,52.6 	"/>
	<path class="st0" d="M66.6,48.8h5.1l-2.6-3.9L66.6,48.8z M61.3,52.6l6.7-9.5h2.6l6.8,9.5h-3.1l-1.4-2.1h-7.5L64,52.6H61.3z"/>
	<polygon class="st0" points="80.4,52.6 80.4,44.7 82,44.7 90.3,49.9 90.3,44.7 92.4,44.7 92.4,52.6 90.8,52.6 82.5,47.3 82.5,52.6 
			"/>
	<path class="st0" d="M99.9,49.4h4.5l-2.3-3.3L99.9,49.4z M95.3,52.6l5.8-7.8h2.3l5.9,7.8h-2.7l-1.2-1.7h-6.4l-1.3,1.7H95.3z"/>
	<polygon class="st0" points="111.6,52.6 111.6,44.7 114,44.7 114,51.1 121.6,51.1 121.6,52.6 	"/>
	<polygon class="st0" points="125.4,52.6 125.4,49.1 120.1,44.7 123.3,44.7 126.8,47.7 130.3,44.7 133.1,44.7 127.8,49 127.8,52.6 	
		"/>
	<path class="st0" d="M144.4,46.1h-6.7v1.7h6.3c0.7-0.1,1.4,0.1,2,0.4c0.4,0.4,0.6,0.9,0.5,1.5v1.1c0.1,0.5-0.1,1.1-0.5,1.5
		c-0.6,0.3-1.3,0.4-2,0.4h-6.3c-0.7,0.1-1.4-0.1-2-0.4c-0.4-0.4-0.6-0.9-0.5-1.5v-0.2l2.1-0.3v0.9h7.1v-1.8h-6.3
		c-0.7,0.1-1.4-0.1-2-0.4c-0.4-0.4-0.6-0.9-0.5-1.5v-0.9c-0.1-0.5,0.1-1.1,0.5-1.5c0.6-0.3,1.3-0.5,2-0.4h5.8c0.7-0.1,1.4,0.1,2,0.4
		c0.4,0.3,0.6,0.8,0.5,1.3v0.2l-2,0.4L144.4,46.1z"/>
	<rect x="150.6" y="44.7" class="st0" width="2.4" height="7.8"/>
	<path class="st0" d="M166.3,46.1h-6.7v1.7h6.3c0.7-0.1,1.4,0.1,2,0.4c0.4,0.4,0.6,0.9,0.5,1.5v1.1c0.1,0.5-0.1,1.1-0.5,1.5
		c-0.6,0.3-1.3,0.5-2,0.4h-6.3c-0.7,0.1-1.4-0.1-2-0.4c-0.4-0.4-0.6-0.9-0.5-1.5v-0.2l2.1-0.3v0.9h7.1v-1.8H160
		c-0.7,0.1-1.4-0.1-2-0.4c-0.4-0.4-0.6-0.9-0.5-1.5v-0.9c-0.1-0.5,0.1-1.1,0.5-1.5c0.6-0.3,1.3-0.5,2-0.4h5.8c0.7-0.1,1.4,0.1,2,0.4
		c0.4,0.3,0.6,0.8,0.5,1.3v0.2l-2,0.4L166.3,46.1z"/>
	<path class="st0" d="M192.6,44.7h-7.7v2h7.4c0.8-0.1,1.6,0.1,2.3,0.4c0.5,0.5,0.7,1.1,0.6,1.8v1.3c0.1,0.7-0.1,1.3-0.6,1.8
		c-0.7,0.4-1.5,0.6-2.3,0.5h-7.3c-0.8,0.1-1.6-0.1-2.4-0.5c-0.5-0.5-0.7-1.1-0.6-1.8V50l2.4-0.4v1.1h8.4v-2.2h-7.4
		c-0.8,0.1-1.6-0.1-2.3-0.5c-0.5-0.5-0.7-1.1-0.6-1.8v-1.1c-0.1-0.7,0.1-1.3,0.6-1.8c0.7-0.4,1.5-0.6,2.3-0.5h6.7
		c0.8-0.1,1.6,0.1,2.3,0.5c0.5,0.4,0.7,1,0.6,1.6v0.2l-2.4,0.5L192.6,44.7z"/>
	<path class="st0" d="M202.2,51h7.8v-4.9h-7.8V51z M199.8,46.6c-0.1-0.5,0.1-1.1,0.5-1.5c0.6-0.3,1.3-0.5,2-0.4h7.5
		c0.7-0.1,1.4,0.1,2,0.4c0.4,0.4,0.6,0.9,0.5,1.5v4.1c0.1,0.5-0.1,1.1-0.5,1.5c-0.6,0.3-1.3,0.5-2,0.4h-7.5c-0.7,0.1-1.4-0.1-2-0.4
		c-0.4-0.4-0.6-0.9-0.5-1.5L199.8,46.6z"/>
	<polygon class="st0" points="216.5,52.6 216.5,44.7 226.8,44.7 226.8,46.1 218.9,46.1 218.9,48.2 223.1,48.2 223.1,49.6 
		218.9,49.6 218.9,52.6 	"/>
	<polygon class="st0" points="235.3,46.1 235.3,52.6 233,52.6 233,46.1 228.3,46.1 228.3,44.7 240,44.7 240,46.1 	"/>
	<polygon class="st0" points="245.7,52.6 241.8,44.7 244.2,44.7 246.8,50.2 249.5,44.7 251.2,44.7 253.9,50.2 256.4,44.7 
		258.5,44.7 254.6,52.6 253,52.6 250.2,47 247.3,52.6 	"/>
	<path class="st0" d="M264.3,49.4h4.5l-2.3-3.3L264.3,49.4z M259.8,52.6l5.8-7.8h2.3l5.9,7.8H271l-1.2-1.7h-6.4l-1.3,1.7H259.8z"/>
	<path class="st0" d="M283.8,46.1h-5.4v2.2h5.4c0.3,0,0.6,0,0.8-0.1c0.2-0.1,0.3-0.3,0.2-0.5v-0.9c0-0.2-0.1-0.4-0.2-0.5
		C284.4,46.1,284.1,46.1,283.8,46.1 M276.1,52.5v-7.8h8.8c0.6,0,1.2,0.1,1.7,0.4c0.4,0.3,0.6,0.7,0.5,1.2v1.9c0,0.4-0.2,0.9-0.5,1.1
		c-0.5,0.3-1.1,0.4-1.7,0.3h-1.3l4.6,3h-3.4l-4.1-3h-2.2v3H276.1z"/>
	<polygon class="st0" points="291,52.6 291,44.7 301.5,44.7 301.5,46.1 293.4,46.1 293.4,47.8 298.1,47.8 298.1,49.2 293.4,49.2 
		293.4,51.1 301.5,51.1 301.5,52.6 	"/>
	<polygon class="st0" points="161.2,26.7 164.8,22.8 164.8,39 161.2,39 	"/>
	<polygon class="st0" points="156.3,31.6 159.9,27.8 159.9,39 156.3,39 	"/>
	<polygon class="st0" points="166.1,18.3 169.8,18.3 169.8,39 166.1,39 	"/>
	<path class="st0" d="M306.5,25.5c0.4,0,0.8,0.1,1.2,0.2c0.4,0.2,0.7,0.4,1,0.7c0.3,0.3,0.5,0.6,0.7,1c0.1,0.4,0.2,0.8,0.2,1.2
		c0,0.4-0.1,0.8-0.2,1.2c-0.2,0.4-0.4,0.7-0.7,1c-0.3,0.3-0.6,0.5-1,0.7c-0.4,0.2-0.8,0.2-1.1,0.2c-0.8,0-1.6-0.3-2.1-0.9
		c-0.3-0.3-0.5-0.6-0.7-1c-0.2-0.4-0.2-0.8-0.2-1.1c0-0.8,0.3-1.6,0.9-2.2c0.3-0.3,0.6-0.5,1-0.6C305.7,25.6,306.1,25.5,306.5,25.5z
		 M309.1,28.6c0-0.4-0.1-0.7-0.2-1c-0.1-0.3-0.3-0.6-0.6-0.8c-0.5-0.5-1.2-0.8-1.9-0.8c-0.3,0-0.7,0.1-1,0.2
		c-0.3,0.1-0.6,0.3-0.8,0.6c-0.3,0.3-0.5,0.6-0.6,0.9c-0.1,0.3-0.2,0.7-0.2,1c0,0.3,0.1,0.7,0.2,1c0.1,0.3,0.3,0.6,0.6,0.8
		c0.2,0.2,0.5,0.5,0.8,0.6c0.3,0.1,0.7,0.2,1,0.2c0.3,0,0.7-0.1,1-0.2c0.3-0.1,0.6-0.3,0.9-0.6c0.3-0.2,0.5-0.5,0.6-0.8
		C309.1,29.3,309.1,28.9,309.1,28.6L309.1,28.6z M306.6,26.8c0.4,0,0.8,0.1,1.1,0.2c0.2,0.2,0.4,0.4,0.4,0.7c0,0.2-0.1,0.4-0.2,0.6
		c-0.2,0.2-0.4,0.3-0.6,0.3l0.8,1.6h-0.7l-0.7-1.5h-0.6v1.5h-0.7v-3.5H306.6z M306.5,27.2h-0.5v1.1h0.6c0.2,0,0.5,0,0.7-0.1
		c0.1-0.1,0.2-0.2,0.2-0.4c0-0.2-0.1-0.4-0.2-0.5C307,27.2,306.7,27.2,306.5,27.2L306.5,27.2z"/>
</g>
</svg>
