<?xml version="1.0" encoding="UTF-8"?><svg id="manage_survey" xmlns="http://www.w3.org/2000/svg" viewBox="0 0 88.06 81.04"><defs><style></style></defs><polygon points="50.16 57.19 49.29 56.32 44.45 61.24 43.14 59.95 42.28 60.83 44.46 62.97 47.09 60.3 47.12 63.75 41.49 63.8 41.45 58.16 46.18 58.13 47.98 56.3 39.62 56.37 39.69 65.62 48.95 65.55 48.89 58.47 50.16 57.19"/><polygon points="50.08 46.79 49.21 45.93 44.37 50.84 43.07 49.55 42.2 50.43 44.38 52.57 47.01 49.9 47.04 53.34 41.41 53.39 41.37 47.76 46.1 47.72 47.9 45.91 39.54 45.97 39.61 55.22 48.87 55.15 48.81 48.08 50.08 46.79"/><polygon points="50.24 67.59 49.37 66.73 44.53 71.64 43.23 70.36 42.37 71.23 44.54 73.37 47.18 70.7 47.2 74.15 41.57 74.19 41.53 68.56 46.26 68.53 48.06 66.7 39.7 66.77 39.77 76.02 49.03 75.95 48.97 68.88 50.24 67.59"/><polygon points="76.31 56.86 71.17 61.45 69.95 60.09 69.04 60.91 71.08 63.19 73.87 60.69 73.69 64.13 68.06 63.83 68.37 58.2 73.1 58.46 75.01 56.75 66.66 56.29 66.16 65.53 75.39 66.04 75.78 58.98 77.13 57.77 76.31 56.86"/><polygon points="76.88 46.47 71.75 51.07 70.53 49.71 69.61 50.53 71.65 52.8 74.45 50.3 74.26 53.74 68.63 53.43 68.94 47.81 73.67 48.07 75.58 46.37 67.23 45.91 66.73 55.15 75.97 55.66 76.35 48.59 77.7 47.39 76.88 46.47"/><polygon points="75.74 67.24 70.61 71.84 69.38 70.48 68.47 71.3 70.51 73.58 73.3 71.07 73.11 74.52 67.49 74.21 67.8 68.58 72.53 68.84 74.44 67.14 66.09 66.68 65.58 75.92 74.82 76.42 75.21 69.37 76.56 68.16 75.74 67.24"/><path d="m73.37,20.5v-3.6c0-4.24-3.45-7.69-7.69-7.69h-18.99V0h-4.88v9.22h-18.99c-4.24,0-7.69,3.45-7.69,7.69v3.64c-3.64,1.23-6.27,4.67-6.27,8.73,0,2.17.76,4.17,2.02,5.74,1.69,2.12,4.29,3.48,7.2,3.48,2.16,0,4.14-.75,5.71-2,2.13-1.69,3.51-4.3,3.51-7.22,0-4.42-3.13-8.12-7.29-9.01v-3.36c0-1.55,1.26-2.8,2.81-2.8h18.99v6.31c-3.87,1.1-6.71,4.65-6.71,8.86,0,2.51,1.01,4.79,2.65,6.46,1.67,1.7,4,2.76,6.57,2.76,2.42,0,4.62-.94,6.26-2.47,1.81-1.68,2.96-4.08,2.96-6.75,0-4.26-2.91-7.85-6.85-8.9v-6.28h18.99c1.55,0,2.81,1.26,2.81,2.8v3.39c-4.09.94-7.16,4.6-7.16,8.98,0,3.04,1.48,5.73,3.76,7.41,1.53,1.13,3.42,1.81,5.46,1.81,2.85,0,5.4-1.3,7.09-3.33,1.33-1.6,2.13-3.65,2.13-5.89,0-4.1-2.69-7.58-6.4-8.77Zm-50.95,8.77c0,2.39-1.95,4.34-4.34,4.34s-4.34-1.95-4.34-4.34,1.95-4.34,4.34-4.34,4.34,1.95,4.34,4.34Zm26.24,0c0,2.39-1.95,4.34-4.34,4.34s-4.34-1.95-4.34-4.34,1.95-4.34,4.34-4.34,4.34,1.95,4.34,4.34Zm21.9-4.34c2.39,0,4.34,1.95,4.34,4.34s-1.95,4.34-4.34,4.34-4.34-1.95-4.34-4.34,1.95-4.34,4.34-4.34Z"/><path d="m88.06,39.94h0s-9.14-.5-9.14-.5l-.5-2.23-.78-.04c-1.69,2.03-4.24,3.33-7.09,3.33-2.05,0-3.93-.68-5.46-1.81l-4.06-.23,4.54.25h0s-4.55-.26-4.55-.26l-2.82-.16-1.78-.1h0s0,0,0,0l-.03.53h-.22s-5.39.04-5.39.04l-.22-.75c-1.65,1.53-3.84,2.47-6.26,2.47-2.57,0-4.9-1.06-6.57-2.76l-.31,1.15h0s-4.69.04-4.69.04h0s-1.07,0-1.07,0l-.05-.86h0s0,0,0,0l-3.56.2-4.27.24c-1.57,1.25-3.56,2-5.71,2-2.91,0-5.51-1.36-7.2-3.48l-1.24.07-.5,2.23h0s-7.36.41-7.36.41L0,39.82h0s2.28,41.1,2.28,41.1l25.78-1.43.53-.03v.65h.23s2.75-.02,2.75-.02h0s23.22-.18,23.22-.18h.02s5.46-.04,5.46-.04v-.23s.76.04.76.04l24.77,1.36,2.26-41.1h0Zm-59.99,37.58l-23.93,1.33h0s-2.06-37.18-2.06-37.18l6.62-.37-.66,2.94,16.09-.89-.97-2.84,4.91-.27h.22s.29,37.26.29,37.26l-.51.03Zm26.18.43h0s0,0,0,0h-.52s0,0,0,0l-19.11.15h-.77s0,0,0,0l-3.3.03v-.75s0,0,0,0l-.21-27.13h0s0,0,0,0l-.07-9.36h1.52s0-.01,0-.01h1.05s0,0,0,0l4.05-.03-.79,2.9,16.11-.13-.84-2.89,4.69-.04h.23s0,0,0,0h1.7s.03,4.25.03,4.25h0s0,0,0,0h0s.25,32.61.25,32.61h0s0,.36,0,.36l-4.04.03Zm6.01-.28l-.29-37.31,1.06.06,3.88.21-.97,2.85,16.09.88-.65-2.93h0s6.62.36,6.62.36l-2.05,37.18-22.91-1.26-.77-.04Z"/><polygon points="22.15 46.61 21.24 45.79 16.64 50.93 15.28 49.71 14.46 50.62 16.74 52.66 19.24 49.86 19.43 53.3 13.81 53.62 13.49 47.99 18.22 47.73 19.93 45.83 11.59 46.29 12.1 55.53 21.34 55.02 20.95 47.96 22.15 46.61"/><polygon points="22.73 56.99 21.82 56.17 17.22 61.31 15.85 60.09 15.03 61.01 17.31 63.04 19.82 60.25 20.01 63.7 14.38 64.01 14.07 58.38 18.8 58.12 20.51 56.21 12.16 56.68 12.68 65.91 21.91 65.4 21.52 58.34 22.73 56.99"/><polygon points="23.31 67.38 22.39 66.56 17.8 71.7 16.43 70.48 15.61 71.39 17.89 73.43 20.39 70.64 20.58 74.08 14.96 74.39 14.65 68.77 19.38 68.5 21.08 66.6 12.74 67.06 13.25 76.3 22.49 75.78 22.1 68.73 23.31 67.38"/></svg>