<?xml version="1.0" encoding="UTF-8"?><svg id="manage-template" xmlns="http://www.w3.org/2000/svg" viewBox="0 0 81.8 64"><polygon points="79 5.6 79 61.2 40.1 61.1 40.1 64 81.8 64 81.8 5.6 79 5.6"/><path d="M2.8,0V7.7H0v2.8H2.8v5.3H0v2.8H2.8v5.4H0v2.8H2.8v5.3H0v2.9H2.8v5.3H0v2.8H2.8v5.3H0v2.8H2.8v7.2H75.8V0H2.8ZM73,55.6H5.6v-4.4h3.1v-2.8h-3.1v-5.3h3.1v-2.8h-3.1v-5.3h3.1v-2.8h-3.1v-5.3h3.1v-2.9h-3.1v-5.3h3.1v-2.8h-3.1v-5.3h3.1v-2.8h-3.1V2.9H73s0,52.7,0,52.7Z"/><path d="M15.3,18h6.7c.7,0,1.3-.6,1.3-1.3v-6.7c0-.7-.6-1.3-1.3-1.3h-6.7c-.7,0-1.3,.6-1.3,1.3v6.7c.1,.7,.6,1.3,1.3,1.3Zm-.4-8c0-.2,.2-.4,.4-.4h6.7c.2,0,.4,.2,.4,.4v6.7c0,.2-.2,.4-.4,.4h-6.7c-.2,0-.4-.2-.4-.4v-6.7Z"/><path d="M25.4,18h42.2V8.8H25.4v9.2Zm.8-8.4h40.6v7.5H26.2v-7.5Z"/><path d="M15.3,32h6.7c.7,0,1.3-.6,1.3-1.3v-6.7c0-.7-.6-1.3-1.3-1.3h-6.7c-.7,0-1.3,.6-1.3,1.3v6.7c.1,.7,.6,1.3,1.3,1.3Zm-.4-7.9c0-.2,.2-.4,.4-.4h6.7c.2,0,.4,.2,.4,.4v6.7c0,.2-.2,.4-.4,.4h-6.7c-.2,0-.4-.2-.4-.4v-6.7Z"/><path d="M25.4,32h42.2v-9.2H25.4v9.2Zm.8-8.4h40.6v7.5H26.2v-7.5Z"/><path d="M15.3,46h6.7c.7,0,1.3-.6,1.3-1.3v-6.7c0-.7-.6-1.3-1.3-1.3h-6.7c-.7,0-1.3,.6-1.3,1.3v6.7c.1,.8,.6,1.3,1.3,1.3Zm-.4-7.9c0-.2,.2-.4,.4-.4h6.7c.2,0,.4,.2,.4,.4v6.7c0,.2-.2,.4-.4,.4h-6.7c-.2,0-.4-.2-.4-.4v-6.7Z"/><path d="M26.2,46h42.2v-9.2H26.2v9.2Zm.8-8.4h40.6v7.5H27v-7.5Z"/></svg>