<?xml version="1.0" encoding="UTF-8"?><svg id="manage_assessments" xmlns="http://www.w3.org/2000/svg" viewBox="0 0 85.4 65.29"><defs></defs><path d="m33.73,14.65l-7.72-7.72H0v58.36h78.7V14.65h-44.97Zm41.27,46.95H3.69V10.63h20.8l7.72,7.72h42.8v43.26Z"/><path d="m40.41,43.16l-1.17,1.17-1.7-1.7-10.93,10.93,5.82,5.82,10.93-10.93-1.7-1.7,1.17-1.17c2.31,1.8,5.2,2.88,8.35,2.88,7.52,0,13.63-6.12,13.63-13.63s-6.12-13.63-13.63-13.63-13.63,6.12-13.63,13.63c0,3.15,1.08,6.04,2.88,8.34Zm-2.88,4.29l1,1-6.11,6.11-1-1,6.11-6.11Zm3.41-12.63c0-5.64,4.59-10.22,10.22-10.22s10.22,4.59,10.22,10.22c0,5.64-4.59,10.22-10.22,10.22-5.64,0-10.22-4.59-10.22-10.22Z"/><path d="m9.44,29.76h6.87c.71,0,1.29-.58,1.29-1.29v-6.87c0-.71-.58-1.29-1.29-1.29h-6.87c-.71,0-1.29.58-1.29,1.29v6.87c0,.71.58,1.29,1.29,1.29Zm-.43-8.15c0-.24.19-.43.43-.43h6.87c.24,0,.43.19.43.43v6.87c0,.24-.19.43-.43.43h-6.87c-.24,0-.43-.19-.43-.43v-6.87Z"/><polygon points="15.75 23.2 15.15 22.59 11.59 26.15 10.6 25.17 10 25.77 11.59 27.37 15.75 23.2"/><path d="m9.44,42.64h6.87c.71,0,1.29-.58,1.29-1.29v-6.87c0-.71-.58-1.29-1.29-1.29h-6.87c-.71,0-1.29.58-1.29,1.29v6.87c0,.71.58,1.29,1.29,1.29Zm-.43-8.15c0-.24.19-.43.43-.43h6.87c.24,0,.43.19.43.43v6.87c0,.24-.19.43-.43.43h-6.87c-.24,0-.43-.19-.43-.43v-6.87Z"/><polygon points="15.75 36.07 15.15 35.47 11.59 39.03 10.6 38.04 10 38.65 11.59 40.24 15.75 36.07"/><path d="m9.44,55.51h6.87c.71,0,1.29-.58,1.29-1.29v-6.87c0-.71-.58-1.29-1.29-1.29h-6.87c-.71,0-1.29.58-1.29,1.29v6.87c0,.71.58,1.29,1.29,1.29Zm-.43-8.15c0-.24.19-.43.43-.43h6.87c.24,0,.43.19.43.43v6.87c0,.24-.19.43-.43.43h-6.87c-.24,0-.43-.19-.43-.43v-6.87Z"/><polygon points="15.75 48.95 15.15 48.34 11.59 51.9 10.6 50.92 10 51.52 11.59 53.11 15.75 48.95"/><path id="top-folder" d="m85.4,7.28h-48.74L28.93,0H5.65v3.34h21.72l7.73,7.62h46.82v47.51h3.47V7.28Z"/></svg>