<?xml version="1.0" encoding="utf-8"?>
<!-- Generator: Adobe Illustrator 27.1.1, SVG Export Plug-In . SVG Version: 6.00 Build 0)  -->
<svg version="1.1" id="Layer_2_00000021834107892966586910000006713650011894601113_"
	 xmlns="http://www.w3.org/2000/svg" xmlns:xlink="http://www.w3.org/1999/xlink" x="0px" y="0px" viewBox="0 0 88 57"
	 style="enable-background:new 0 0 88 57;" xml:space="preserve">
<style type="text/css">
	.st0{fill:#211D21;}
	.st1{fill:#FFFFFF;}
	.st2{fill:#F6BB4E;}
</style>
<path class="st0" d="M3,0h82c1.7,0,3,1.3,3,3v51c0,1.7-1.3,3-3,3H3c-1.7,0-3-1.3-3-3V3C0,1.3,1.3,0,3,0z"/>
<path class="st1" d="M8,5h72c1.7,0,3,1.3,3,3v41c0,1.7-1.3,3-3,3H8c-1.7,0-3-1.3-3-3V8C5,6.3,6.3,5,8,5z"/>
<path class="st2" d="M63.8,10.9c0-0.5-0.1-1-0.2-1.4c-0.2-0.4-0.4-0.8-0.8-1.2c-0.4-0.4-0.8-0.6-1.2-0.8c-0.4-0.2-0.9-0.3-1.4-0.3
	H27.9c-0.5,0-1,0.1-1.4,0.3s-0.8,0.5-1.2,0.8c-0.4,0.4-0.6,0.8-0.8,1.2s-0.3,0.9-0.2,1.4l0,0c0,2.3,0,4.5,0,6.7
	c-0.1,16.4-0.1,27.6,19.5,32.3c0.1,0,0.1,0,0.2,0s0.1,0,0.2,0c19.7-4.8,19.6-15.9,19.5-32.3C63.8,15.4,63.7,13.2,63.8,10.9
	L63.8,10.9z"/>
<path class="st0" d="M27.3,25c0,1.2-1.2,1.7-3.5,1.7H12.1c-2.3,0-3.5-0.6-3.5-1.7v-4.5h5.8v3.9h7.1v-3.7L9.8,15.2
	c-0.8-0.4-1.3-0.9-1.3-1.5V9.4c0-1.2,1.2-1.8,3.5-1.8h11.7c2.4,0,3.5,0.6,3.5,1.7v4.3h-5.8v-3.6h-7.1v3.4L26,18.9
	c0.8,0.4,1.3,0.9,1.3,1.5V25L27.3,25z"/>
<path class="st0" d="M55.4,26.7h-5.6v-9.4c0-0.5,0.1-1.2,0.3-2.1l-5,9.7h-3l-5-9.7c0.2,0.9,0.3,1.6,0.3,2.1v9.4h-5.6V7.7h5.5
	l6.1,10.5c0.1,0.1,0.1,0.4,0.2,0.9c0-0.2,0-0.5,0.2-0.9l6.1-10.5h5.5L55.4,26.7L55.4,26.7z"/>
<path class="st0" d="M78.6,25c0,1.2-1.2,1.7-3.5,1.7H63.4c-2.3,0-3.5-0.6-3.5-1.7v-4.5h5.8v3.9h7.1v-3.7l-11.6-5.4
	c-0.8-0.4-1.3-0.9-1.3-1.5V9.4c0-1.2,1.2-1.8,3.5-1.8h11.7c2.3,0,3.5,0.6,3.5,1.7v4.3h-5.8v-3.6h-7.1v3.4l11.6,5.4
	c0.8,0.4,1.3,0.9,1.3,1.5V25L78.6,25z"/>
<path class="st0" d="M17,49.1h-5.7C7.1,45.8,5,42.2,5,38.3s2.1-7.5,6.4-10.8H17v0.1c-3.9,3.4-5.9,6.9-5.9,10.6s2,7.3,5.9,10.6V49.1
	L17,49.1z"/>
<path class="st0" d="M83.2,38.3c0,3.9-2.1,7.5-6.3,10.8h-5.8v-0.1C75,45.6,77,42.1,77,38.3s-2-7.3-5.9-10.6v-0.1h5.8
	C81.1,30.9,83.2,34.5,83.2,38.3L83.2,38.3z"/>
<path class="st0" d="M34,32.6H21.8v12.3H34v-4.2l4.5,0.9v2.2c0.1,1.3-0.2,2.6-1,3.7c-1.1,0.8-2.5,1.1-3.9,1H22.1
	c-1.4,0.2-2.7-0.2-3.9-1c-0.8-1-1.1-2.4-1-3.7V33.7c-0.1-1.3,0.2-2.6,1-3.6c1.1-0.8,2.5-1.1,3.9-1h11.6c1.4-0.2,2.7,0.2,3.9,1
	c0.8,1,1.2,2.3,1,3.6v1.9l-4.5,0.7L34,32.6L34,32.6z"/>
<polyline class="st0" points="52.7,46.6 45.4,37.8 45.4,48.5 42.3,48.5 42.3,32.5 45.4,32.5 53.3,42.1 53.3,46.6 "/>
<polygon class="st0" points="59.5,36.2 63.1,32.3 63.1,48.5 59.5,48.5 "/>
<polygon class="st0" points="54.6,41.1 58.2,37.3 58.2,48.5 54.6,48.5 "/>
<polygon class="st0" points="64.4,27.8 68.1,27.8 68.1,48.5 64.4,48.5 "/>
</svg>
